{
  "accessors": [
    {
      "bufferView": 2,
      "componentType": 5126,
      "count": 5239,
      "max": [
        1.6359479427337646,
        7.46385383605957,
        4.2767438888549805
      ],
      "min": [
        -6.917540550231934,
        -5.530329704284668,
        -4.276744842529297
      ],
      "type": "VEC3"
    },
    {
      "bufferView": 2,
      "byteOffset": 62868,
      "componentType": 5126,
      "count": 5239,
      "max": [
        1.0,
        1.0,
        1.0
      ],
      "min": [
        -1.0,
        -1.0,
        -1.0
      ],
      "type": "VEC3"
    },
    {
      "bufferView": 1,
      "componentType": 5126,
      "count": 5239,
      "max": [
        0.9981070756912231,
        0.9973194599151611
      ],
      "min": [
        0.0004493632586672902,
        0.005109706893563271
      ],
      "type": "VEC2"
    },
    {
      "bufferView": 0,
      "componentType": 5125,
      "count": 26172,
      "type": "SCALAR"
    },
    {
      "bufferView": 2,
      "byteOffset": 125736,
      "componentType": 5126,
      "count": 11061,
      "max": [
        1.981017827987671,
        8.901228904724121,
        4.6218132972717285
      ],
      "min": [
        -7.262611389160156,
        6.524662971496582,
        -4.621815204620361
      ],
      "type": "VEC3"
    },
    {
      "bufferView": 2,
      "byteOffset": 258468,
      "componentType": 5126,
      "count": 11061,
      "max": [
        1.0,
        1.0,
        1.0
      ],
      "min": [
        -1.0,
        -0.9423543214797974,
        -1.0
      ],
      "type": "VEC3"
    },
    {
      "bufferView": 1,
      "byteOffset": 41912,
      "componentType": 5126,
      "count": 11061,
      "max": [
        0.9990000128746033,
        0.9838743805885315
      ],
      "min": [
        0.0010000000474974513,
        0.0010000000474974513
      ],
      "type": "VEC2"
    },
    {
      "bufferView": 0,
      "byteOffset": 104688,
      "componentType": 5125,
      "count": 59463,
      "type": "SCALAR"
    }
  ],
  "asset": {
    "extras": {
      "author": "asleshka (https://sketchfab.com/asleshka)",
      "license": "CC-BY-4.0 (http://creativecommons.org/licenses/by/4.0/)",
      "source": "https://sketchfab.com/3d-models/up-of-coffee-vkusnoitochka-russian-mc-donalds-f2e22ef78eb3476eaae461d97f9d30bd",
      "title": "Сup Of Coffee Vkusnoitochka Russian Mc Donald's"
    },
    "generator": "Sketchfab-15.20.0",
    "version": "2.0"
  },
  "bufferViews": [
    {
      "buffer": 0,
      "byteLength": 342540,
      "name": "floatBufferViews",
      "target": 34963
    },
    {
      "buffer": 0,
      "byteLength": 130400,
      "byteOffset": 342540,
      "byteStride": 8,
      "name": "floatBufferViews",
      "target": 34962
    },
    {
      "buffer": 0,
      "byteLength": 391200,
      "byteOffset": 472940,
      "byteStride": 12,
      "name": "floatBufferViews",
      "target": 34962
    }
  ],
  "buffers": [
    {
      "byteLength": 864140,
      "uri": "scene.bin"
    }
  ],
  "extensionsUsed": [
    "KHR_materials_specular"
  ],
  "images": [
    {
      "uri": "textures/cup_vkusnoitochka_1_baseColor.png"
    }
  ],
  "materials": [
    {
      "extensions": {
        "KHR_materials_specular": {
          "specularColorFactor": [
            1.0,
            1.0,
            1.0
          ],
          "specularFactor": 1.0
        }
      },
      "name": "cup_vkusnoitochka_1",
      "pbrMetallicRoughness": {
        "baseColorTexture": {
          "index": 0
        },
        "metallicFactor": 0.0,
        "roughnessFactor": 0.5705592449320259
      }
    },
    {
      "doubleSided": true,
      "extensions": {
        "KHR_materials_specular": {
          "specularColorFactor": [
            1.0,
            1.0,
            1.0
          ],
          "specularFactor": 1.0
        }
      },
      "name": "cup_vkusnoitochka_2_cup_up",
      "pbrMetallicRoughness": {
        "baseColorFactor": [
          0.05247925531578373,
          0.024831478333294802,
          0.015843791926401896,
          1.0
        ],
        "metallicFactor": 0.0,
        "roughnessFactor": 0.1272295351611606
      }
    }
  ],
  "meshes": [
    {
      "name": "cup vkusnoitochka_cup vkusnoitochka 1_0",
      "primitives": [
        {
          "attributes": {
            "NORMAL": 1,
            "POSITION": 0,
            "TEXCOORD_0": 2
          },
          "indices": 3,
          "material": 0,
          "mode": 4
        }
      ]
    },
    {
      "name": "cup vkusnoitochka_cup vkusnoitochka 2 cup up_0",
      "primitives": [
        {
          "attributes": {
            "NORMAL": 5,
            "POSITION": 4,
            "TEXCOORD_0": 6
          },
          "indices": 7,
          "material": 1,
          "mode": 4
        }
      ]
    }
  ],
  "nodes": [
    {
      "children": [
        1
      ],
      "matrix": [
        1.0,
        0.0,
        0.0,
        0.0,
        0.0,
        2.220446049250313e-16,
        -1.0,
        0.0,
        0.0,
        1.0,
        2.220446049250313e-16,
        0.0,
        0.0,
        0.0,
        0.0,
        1.0
      ],
      "name": "Sketchfab_model"
    },
    {
      "children": [
        2
      ],
      "matrix": [
        0.009999999776482582,
        0.0,
        0.0,
        0.0,
        0.0,
        0.0,
        0.009999999776482582,
        0.0,
        0.0,
        -0.009999999776482582,
        0.0,
        0.0,
        0.0,
        0.0,
        0.0,
        1.0
      ],
      "name": "c578f90c29ef4365aedec772d6762575.fbx"
    },
    {
      "children": [
        3
      ],
      "name": "RootNode"
    },
    {
      "children": [
        4
      ],
      "matrix": [
        1.6292068460987963e-07,
        0.0,
        0.9999999999999867,
        0.0,
        -4.371138822550499e-08,
        0.999999999999999,
        7.121489295963928e-15,
        0.0,
        -0.9999999999999858,
        -4.371138822550557e-08,
        1.6292068460987963e-07,
        0.0,
        0.0,
        0.0,
        0.0,
        1.0
      ],
      "name": "cup vkusnoitochka"
    },
    {
      "children": [
        5,
        6
      ],
      "matrix": [
        1.0,
        0.0,
        -0.0,
        0.0,
        0.0,
        1.0,
        0.0,
        0.0,
        0.0,
        0.0,
        1.0,
        0.0,
        2.640796422958374,
        5.51990270614624,
        -6.715229687870305e-07,
        1.0
      ],
      "name": "Object_4"
    },
    {
      "mesh": 0,
      "name": "cup vkusnoitochka_cup vkusnoitochka 1_0"
    },
    {
      "mesh": 1,
      "name": "cup vkusnoitochka_cup vkusnoitochka 2 cup up_0"
    }
  ],
  "samplers": [
    {
      "magFilter": 9729,
      "minFilter": 9987,
      "wrapS": 10497,
      "wrapT": 10497
    }
  ],
  "scene": 0,
  "scenes": [
    {
      "name": "Sketchfab_Scene",
      "nodes": [
        0
      ]
    }
  ],
  "textures": [
    {
      "sampler": 0,
      "source": 0
    }
  ]
}
