<svg width="168" height="34" viewBox="0 0 168 34" fill="none" xmlns="http://www.w3.org/2000/svg">
<path d="M40.2045 27.3196C38.5284 27.3196 37.0866 26.9645 35.8793 26.2543C34.679 25.5369 33.7557 24.5426 33.1094 23.2713C32.4702 22 32.1506 20.5369 32.1506 18.8821C32.1506 17.206 32.4737 15.7358 33.12 14.4716C33.7734 13.2003 34.7003 12.2095 35.9006 11.4993C37.1009 10.782 38.5284 10.4233 40.1832 10.4233C41.6108 10.4233 42.8608 10.6825 43.9332 11.201C45.0057 11.7195 45.8544 12.4474 46.4794 13.3849C47.1044 14.3224 47.4489 15.4233 47.5128 16.6875H43.2301C43.1094 15.8707 42.7898 15.2138 42.2713 14.7166C41.7599 14.2124 41.0888 13.9602 40.2578 13.9602C39.5547 13.9602 38.9403 14.152 38.4148 14.5355C37.8963 14.9119 37.4915 15.4624 37.2003 16.1868C36.9091 16.9112 36.7635 17.7884 36.7635 18.8182C36.7635 19.8622 36.9055 20.75 37.1896 21.4815C37.4808 22.2131 37.8892 22.7706 38.4148 23.1541C38.9403 23.5376 39.5547 23.7294 40.2578 23.7294C40.7763 23.7294 41.2415 23.6229 41.6534 23.4098C42.0724 23.1967 42.4169 22.8878 42.6868 22.483C42.9638 22.071 43.1449 21.5774 43.2301 21.0021H47.5128C47.4418 22.2521 47.1009 23.353 46.4901 24.3047C45.8864 25.2493 45.0518 25.9879 43.9865 26.5206C42.9212 27.0533 41.6605 27.3196 40.2045 27.3196ZM56.9759 27.3196C55.2926 27.3196 53.8438 26.9787 52.6293 26.2969C51.4219 25.608 50.4915 24.6349 49.8381 23.3778C49.1847 22.1136 48.858 20.6186 48.858 18.8928C48.858 17.2095 49.1847 15.7322 49.8381 14.4609C50.4915 13.1896 51.4113 12.1989 52.5973 11.4886C53.7905 10.7784 55.1897 10.4233 56.7948 10.4233C57.8743 10.4233 58.8793 10.5973 59.8097 10.9453C60.7472 11.2862 61.564 11.8011 62.26 12.4901C62.9631 13.179 63.51 14.0455 63.9006 15.0895C64.2912 16.1264 64.4865 17.3409 64.4865 18.733V19.9794H50.6691V17.1669H60.2145C60.2145 16.5135 60.0725 15.9347 59.7884 15.4304C59.5043 14.9261 59.1101 14.532 58.6059 14.2479C58.1087 13.9567 57.5299 13.8111 56.8694 13.8111C56.1804 13.8111 55.5696 13.9709 55.037 14.2905C54.5114 14.603 54.0995 15.0256 53.8012 15.5582C53.5029 16.0838 53.3502 16.6697 53.3431 17.3161V19.9901C53.3431 20.7997 53.4922 21.4993 53.7905 22.0888C54.0959 22.6783 54.5256 23.1328 55.0796 23.4524C55.6336 23.772 56.2905 23.9318 57.0505 23.9318C57.5547 23.9318 58.0164 23.8608 58.4354 23.7188C58.8544 23.5767 59.2131 23.3636 59.5114 23.0795C59.8097 22.7955 60.037 22.4474 60.1932 22.0355L64.3907 22.3125C64.1776 23.321 63.7408 24.2017 63.0803 24.9545C62.4269 25.7003 61.5817 26.2827 60.5448 26.7017C59.515 27.1136 58.3253 27.3196 56.9759 27.3196ZM66.5482 27V10.6364H73.5262C75.5432 10.6364 77.1377 11.0199 78.3096 11.7869C79.4814 12.554 80.0674 13.6442 80.0674 15.0575C80.0674 15.9453 79.7371 16.6839 79.0766 17.2734C78.4161 17.8629 77.4999 18.2607 76.328 18.4666C77.3081 18.5376 78.1427 18.7614 78.8316 19.1378C79.5276 19.5071 80.0567 19.9865 80.4189 20.576C80.7882 21.1655 80.9729 21.8189 80.9729 22.5362C80.9729 23.4666 80.7243 24.2656 80.2272 24.9332C79.7371 25.6009 79.0162 26.1122 78.0645 26.4673C77.1199 26.8224 75.9658 27 74.6022 27H66.5482ZM70.7776 23.6016H74.6022C75.2343 23.6016 75.7279 23.4524 76.083 23.1541C76.4452 22.8487 76.6263 22.4332 76.6263 21.9077C76.6263 21.3253 76.4452 20.8672 76.083 20.5334C75.7279 20.1996 75.2343 20.0327 74.6022 20.0327H70.7776V23.6016ZM70.7776 17.3693H73.6221C74.0766 17.3693 74.4637 17.3054 74.7833 17.1776C75.11 17.0426 75.3586 16.8509 75.529 16.6023C75.7066 16.3537 75.7953 16.0589 75.7953 15.718C75.7953 15.2138 75.5929 14.8196 75.1881 14.5355C74.7833 14.2514 74.2293 14.1094 73.5262 14.1094H70.7776V17.3693ZM90.3907 27.3196C88.7075 27.3196 87.2586 26.9787 86.0441 26.2969C84.8368 25.608 83.9064 24.6349 83.2529 23.3778C82.5995 22.1136 82.2728 20.6186 82.2728 18.8928C82.2728 17.2095 82.5995 15.7322 83.2529 14.4609C83.9064 13.1896 84.8261 12.1989 86.0122 11.4886C87.2054 10.7784 88.6045 10.4233 90.2096 10.4233C91.2892 10.4233 92.2941 10.5973 93.2245 10.9453C94.162 11.2862 94.9788 11.8011 95.6748 12.4901C96.3779 13.179 96.9248 14.0455 97.3154 15.0895C97.7061 16.1264 97.9014 17.3409 97.9014 18.733V19.9794H84.0839V17.1669H93.6294C93.6294 16.5135 93.4873 15.9347 93.2032 15.4304C92.9191 14.9261 92.525 14.532 92.0207 14.2479C91.5235 13.9567 90.9447 13.8111 90.2842 13.8111C89.5953 13.8111 88.9845 13.9709 88.4518 14.2905C87.9262 14.603 87.5143 15.0256 87.216 15.5582C86.9177 16.0838 86.765 16.6697 86.7579 17.3161V19.9901C86.7579 20.7997 86.9071 21.4993 87.2054 22.0888C87.5108 22.6783 87.9404 23.1328 88.4944 23.4524C89.0484 23.772 89.7054 23.9318 90.4653 23.9318C90.9696 23.9318 91.4312 23.8608 91.8502 23.7188C92.2693 23.5767 92.6279 23.3636 92.9262 23.0795C93.2245 22.7955 93.4518 22.4474 93.6081 22.0355L97.8055 22.3125C97.5924 23.321 97.1556 24.2017 96.4951 24.9545C95.8417 25.7003 94.9966 26.2827 93.9596 26.7017C92.9298 27.1136 91.7402 27.3196 90.3907 27.3196ZM99.963 33.1364V10.6364H104.437V13.3849H104.64C104.839 12.9446 105.126 12.4972 105.503 12.0426C105.886 11.581 106.383 11.1974 106.994 10.892C107.612 10.5795 108.379 10.4233 109.295 10.4233C110.489 10.4233 111.589 10.7358 112.598 11.3608C113.607 11.9787 114.413 12.9126 115.016 14.1626C115.62 15.4055 115.922 16.9645 115.922 18.8395C115.922 20.6648 115.627 22.206 115.038 23.4631C114.455 24.7131 113.66 25.6612 112.651 26.3075C111.65 26.9467 110.528 27.2663 109.285 27.2663C108.404 27.2663 107.655 27.1207 107.037 26.8295C106.426 26.5384 105.925 26.1726 105.535 25.7322C105.144 25.2848 104.846 24.8338 104.64 24.3793H104.501V33.1364H99.963ZM104.406 18.8182C104.406 19.7912 104.54 20.6399 104.81 21.3643C105.08 22.0888 105.471 22.6534 105.982 23.0582C106.494 23.456 107.115 23.6548 107.847 23.6548C108.585 23.6548 109.21 23.4524 109.722 23.0476C110.233 22.6357 110.62 22.0675 110.883 21.343C111.153 20.6115 111.288 19.7699 111.288 18.8182C111.288 17.8736 111.156 17.0426 110.893 16.3253C110.631 15.608 110.244 15.0469 109.732 14.642C109.221 14.2372 108.592 14.0348 107.847 14.0348C107.108 14.0348 106.483 14.2301 105.972 14.6207C105.467 15.0114 105.08 15.5653 104.81 16.2827C104.54 17 104.406 17.8452 104.406 18.8182ZM131.652 4.62784L133.037 7.58949C132.575 7.97301 132.064 8.2571 131.503 8.44176C130.942 8.61932 130.27 8.73651 129.489 8.79332C128.715 8.85014 127.77 8.8892 126.655 8.91051C125.391 8.92472 124.361 9.12713 123.566 9.51776C122.77 9.90838 122.167 10.5227 121.755 11.3608C121.343 12.1918 121.073 13.2784 120.945 14.6207H121.105C121.595 13.6193 122.284 12.8452 123.172 12.2983C124.067 11.7514 125.171 11.478 126.485 11.478C127.877 11.478 129.095 11.7834 130.139 12.3942C131.19 13.005 132.007 13.8821 132.589 15.0256C133.172 16.169 133.463 17.5398 133.463 19.1378C133.463 20.7997 133.136 22.245 132.483 23.4737C131.836 24.6953 130.917 25.6435 129.724 26.3182C128.53 26.9858 127.11 27.3196 125.462 27.3196C123.807 27.3196 122.38 26.9716 121.18 26.2756C119.986 25.5795 119.063 24.5533 118.41 23.1967C117.763 21.8402 117.44 20.1712 117.44 18.1896V16.8473C117.44 12.9055 118.207 9.98295 119.741 8.07955C121.275 6.17614 123.53 5.21023 126.506 5.18182C127.316 5.16761 128.047 5.16406 128.701 5.17116C129.354 5.17827 129.926 5.14631 130.416 5.07528C130.913 5.00426 131.325 4.85511 131.652 4.62784ZM125.483 23.804C126.18 23.804 126.776 23.6229 127.273 23.2607C127.778 22.8984 128.165 22.38 128.434 21.7053C128.711 21.0305 128.85 20.2244 128.85 19.2869C128.85 18.3565 128.711 17.5682 128.434 16.9219C128.165 16.2685 127.778 15.7713 127.273 15.4304C126.769 15.0895 126.165 14.919 125.462 14.919C124.937 14.919 124.464 15.0149 124.045 15.2067C123.626 15.3984 123.268 15.6825 122.969 16.0589C122.678 16.4283 122.451 16.8864 122.287 17.4332C122.131 17.973 122.053 18.5909 122.053 19.2869C122.053 20.6861 122.355 21.7905 122.959 22.6001C123.569 23.4027 124.411 23.804 125.483 23.804ZM140.241 27.3089C139.197 27.3089 138.267 27.1278 137.45 26.7656C136.633 26.3963 135.987 25.853 135.511 25.1357C135.042 24.4112 134.808 23.5092 134.808 22.4297C134.808 21.5206 134.975 20.7571 135.309 20.1392C135.643 19.5213 136.097 19.0241 136.672 18.6477C137.248 18.2713 137.901 17.9872 138.633 17.7955C139.371 17.6037 140.145 17.4688 140.955 17.3906C141.907 17.2912 142.674 17.1989 143.256 17.1136C143.839 17.0213 144.261 16.8864 144.524 16.7088C144.787 16.5312 144.918 16.2685 144.918 15.9205V15.8565C144.918 15.1818 144.705 14.6598 144.279 14.2905C143.86 13.9212 143.263 13.7365 142.489 13.7365C141.672 13.7365 141.023 13.9176 140.54 14.2798C140.057 14.6349 139.737 15.0824 139.581 15.6222L135.383 15.2812C135.596 14.2869 136.015 13.4276 136.64 12.7031C137.265 11.9716 138.072 11.4105 139.059 11.0199C140.053 10.6222 141.204 10.4233 142.511 10.4233C143.42 10.4233 144.29 10.5298 145.121 10.7429C145.959 10.956 146.701 11.2862 147.347 11.7337C148.001 12.1811 148.515 12.7564 148.892 13.4595C149.268 14.1555 149.457 14.9901 149.457 15.9631V27H145.153V24.7308H145.025C144.762 25.2422 144.41 25.6932 143.97 26.0838C143.53 26.4673 143.001 26.7692 142.383 26.9893C141.765 27.2024 141.051 27.3089 140.241 27.3089ZM141.541 24.1768C142.209 24.1768 142.798 24.0455 143.31 23.7827C143.821 23.5128 144.222 23.1506 144.513 22.696C144.805 22.2415 144.95 21.7266 144.95 21.1513V19.4148C144.808 19.5071 144.613 19.5923 144.364 19.6705C144.123 19.7415 143.849 19.8089 143.544 19.8729C143.238 19.9297 142.933 19.983 142.628 20.0327C142.322 20.0753 142.045 20.1143 141.797 20.1499C141.264 20.228 140.799 20.3523 140.401 20.5227C140.003 20.6932 139.694 20.924 139.474 21.2152C139.254 21.4993 139.144 21.8544 139.144 22.2805C139.144 22.8984 139.368 23.3707 139.815 23.6974C140.27 24.017 140.845 24.1768 141.541 24.1768ZM159.471 27.3196C157.795 27.3196 156.353 26.9645 155.146 26.2543C153.945 25.5369 153.022 24.5426 152.376 23.2713C151.737 22 151.417 20.5369 151.417 18.8821C151.417 17.206 151.74 15.7358 152.386 14.4716C153.04 13.2003 153.967 12.2095 155.167 11.4993C156.367 10.782 157.795 10.4233 159.45 10.4233C160.877 10.4233 162.127 10.6825 163.2 11.201C164.272 11.7195 165.121 12.4474 165.746 13.3849C166.371 14.3224 166.715 15.4233 166.779 16.6875H162.497C162.376 15.8707 162.056 15.2138 161.538 14.7166C161.026 14.2124 160.355 13.9602 159.524 13.9602C158.821 13.9602 158.207 14.152 157.681 14.5355C157.163 14.9119 156.758 15.4624 156.467 16.1868C156.175 16.9112 156.03 17.7884 156.03 18.8182C156.03 19.8622 156.172 20.75 156.456 21.4815C156.747 22.2131 157.156 22.7706 157.681 23.1541C158.207 23.5376 158.821 23.7294 159.524 23.7294C160.043 23.7294 160.508 23.6229 160.92 23.4098C161.339 23.1967 161.683 22.8878 161.953 22.483C162.23 22.071 162.411 21.5774 162.497 21.0021H166.779C166.708 22.2521 166.367 23.353 165.756 24.3047C165.153 25.2493 164.318 25.9879 163.253 26.5206C162.188 27.0533 160.927 27.3196 159.471 27.3196Z" fill="#1C202A"/>
<mask id="mask0_604_3810" style="mask-type:alpha" maskUnits="userSpaceOnUse" x="0" y="5" width="26" height="26">
<circle cx="13" cy="18" r="13" fill="#C4C4C4"/>
</mask>
<g mask="url(#mask0_604_3810)">
<rect x="-3" y="-11" width="45" height="50" fill="url(#paint0_linear_604_3810)"/>
<g filter="url(#filter0_i_604_3810)">
<circle cx="13" cy="18" r="13" fill="white" fill-opacity="0.06"/>
</g>
</g>
<defs>
<filter id="filter0_i_604_3810" x="0" y="5" width="26" height="26" filterUnits="userSpaceOnUse" color-interpolation-filters="sRGB">
<feFlood flood-opacity="0" result="BackgroundImageFix"/>
<feBlend mode="normal" in="SourceGraphic" in2="BackgroundImageFix" result="shape"/>
<feColorMatrix in="SourceAlpha" type="matrix" values="0 0 0 0 0 0 0 0 0 0 0 0 0 0 0 0 0 0 127 0" result="hardAlpha"/>
<feOffset/>
<feGaussianBlur stdDeviation="2.5"/>
<feComposite in2="hardAlpha" operator="arithmetic" k2="-1" k3="1"/>
<feColorMatrix type="matrix" values="0 0 0 0 1 0 0 0 0 1 0 0 0 0 1 0 0 0 0.57 0"/>
<feBlend mode="normal" in2="shape" result="effect1_innerShadow_604_3810"/>
</filter>
<linearGradient id="paint0_linear_604_3810" x1="19.5" y1="-11" x2="19.5" y2="39" gradientUnits="userSpaceOnUse">
<stop stop-color="#FFCE00"/>
<stop offset="0.817708" stop-color="#03D5FF"/>
</linearGradient>
</defs>
</svg>
