<svg width="140" height="27" viewBox="0 0 140 27" fill="none" xmlns="http://www.w3.org/2000/svg">
<path d="M46.5078 11.6016H43.0859C43.0234 11.1589 42.8958 10.7656 42.7031 10.4219C42.5104 10.0729 42.263 9.77604 41.9609 9.53125C41.6589 9.28646 41.3099 9.09896 40.9141 8.96875C40.5234 8.83854 40.099 8.77344 39.6406 8.77344C38.8125 8.77344 38.0911 8.97917 37.4766 9.39062C36.862 9.79687 36.3854 10.3906 36.0469 11.1719C35.7083 11.9479 35.5391 12.8906 35.5391 14C35.5391 15.1406 35.7083 16.099 36.0469 16.875C36.3906 17.651 36.8698 18.237 37.4844 18.6328C38.099 19.0286 38.8099 19.2266 39.6172 19.2266C40.0703 19.2266 40.4896 19.1667 40.875 19.0469C41.2656 18.9271 41.612 18.7526 41.9141 18.5234C42.2161 18.2891 42.4661 18.0052 42.6641 17.6719C42.8672 17.3385 43.0078 16.9583 43.0859 16.5312L46.5078 16.5469C46.4193 17.2812 46.1979 17.9896 45.8438 18.6719C45.4948 19.349 45.0234 19.9557 44.4297 20.4922C43.8411 21.0234 43.138 21.4453 42.3203 21.7578C41.5078 22.0651 40.5885 22.2187 39.5625 22.2187C38.1354 22.2187 36.8594 21.8958 35.7344 21.25C34.6146 20.6042 33.7292 19.6693 33.0781 18.4453C32.4323 17.2214 32.1094 15.7396 32.1094 14C32.1094 12.2552 32.4375 10.7708 33.0938 9.54688C33.75 8.32292 34.6406 7.39062 35.7656 6.75C36.8906 6.10417 38.1563 5.78125 39.5625 5.78125C40.4896 5.78125 41.349 5.91146 42.1406 6.17187C42.9375 6.43229 43.6432 6.8125 44.2578 7.3125C44.8724 7.80729 45.3724 8.41406 45.7578 9.13281C46.1484 9.85156 46.3984 10.6745 46.5078 11.6016ZM54.3398 22.2344C53.1055 22.2344 52.043 21.9844 51.1523 21.4844C50.2669 20.9792 49.5846 20.2656 49.1055 19.3437C48.6263 18.4167 48.3867 17.3203 48.3867 16.0547C48.3867 14.8203 48.6263 13.737 49.1055 12.8047C49.5846 11.8724 50.2591 11.1458 51.1289 10.625C52.0039 10.1042 53.0299 9.84375 54.207 9.84375C54.9987 9.84375 55.7357 9.97135 56.418 10.2266C57.1055 10.4766 57.7044 10.8542 58.2148 11.3594C58.7305 11.8646 59.1315 12.5 59.418 13.2656C59.7044 14.026 59.8477 14.9167 59.8477 15.9375V16.8516H49.7148V14.7891H56.7148C56.7148 14.3099 56.6107 13.8854 56.4023 13.5156C56.194 13.1458 55.9049 12.8568 55.5352 12.6484C55.1706 12.4349 54.7461 12.3281 54.2617 12.3281C53.7565 12.3281 53.3086 12.4453 52.918 12.6797C52.5326 12.9089 52.2305 13.2187 52.0117 13.6094C51.793 13.9948 51.681 14.4245 51.6758 14.8984V16.8594C51.6758 17.4531 51.7852 17.9661 52.0039 18.3984C52.2279 18.8307 52.543 19.1641 52.9492 19.3984C53.3555 19.6328 53.8372 19.75 54.3945 19.75C54.7643 19.75 55.1029 19.6979 55.4102 19.5938C55.7174 19.4896 55.9805 19.3333 56.1992 19.125C56.418 18.9167 56.5846 18.6615 56.6992 18.3594L59.7773 18.5625C59.6211 19.3021 59.3008 19.9479 58.8164 20.5C58.3372 21.0469 57.7174 21.474 56.957 21.7813C56.2018 22.0833 55.3294 22.2344 54.3398 22.2344ZM62.0195 22V10H67.1367C68.6159 10 69.7852 10.2812 70.6445 10.8437C71.5039 11.4062 71.9336 12.2057 71.9336 13.2422C71.9336 13.8932 71.6914 14.4349 71.207 14.8672C70.7227 15.2995 70.0508 15.5911 69.1914 15.7422C69.9102 15.7943 70.5221 15.9583 71.0273 16.2344C71.5378 16.5052 71.9258 16.8568 72.1914 17.2891C72.4622 17.7214 72.5977 18.2005 72.5977 18.7266C72.5977 19.4089 72.4154 19.9948 72.0508 20.4844C71.6914 20.974 71.1628 21.349 70.4648 21.6094C69.7721 21.8698 68.9258 22 67.9258 22H62.0195ZM65.1211 19.5078H67.9258C68.3893 19.5078 68.7513 19.3984 69.0117 19.1797C69.2773 18.9557 69.4102 18.651 69.4102 18.2656C69.4102 17.8385 69.2773 17.5026 69.0117 17.2578C68.7513 17.013 68.3893 16.8906 67.9258 16.8906H65.1211V19.5078ZM65.1211 14.9375H67.207C67.5404 14.9375 67.8242 14.8906 68.0586 14.7969C68.2982 14.6979 68.4805 14.5573 68.6055 14.375C68.7357 14.1927 68.8008 13.9766 68.8008 13.7266C68.8008 13.3568 68.6523 13.0677 68.3555 12.8594C68.0586 12.651 67.6523 12.5469 67.1367 12.5469H65.1211V14.9375ZM80.1641 22.2344C78.9297 22.2344 77.8672 21.9844 76.9766 21.4844C76.0911 20.9792 75.4089 20.2656 74.9297 19.3437C74.4505 18.4167 74.2109 17.3203 74.2109 16.0547C74.2109 14.8203 74.4505 13.737 74.9297 12.8047C75.4089 11.8724 76.0833 11.1458 76.9531 10.625C77.8281 10.1042 78.8542 9.84375 80.0313 9.84375C80.8229 9.84375 81.5599 9.97135 82.2422 10.2266C82.9297 10.4766 83.5286 10.8542 84.0391 11.3594C84.5547 11.8646 84.9557 12.5 85.2422 13.2656C85.5286 14.026 85.6719 14.9167 85.6719 15.9375V16.8516H75.5391V14.7891H82.5391C82.5391 14.3099 82.4349 13.8854 82.2266 13.5156C82.0182 13.1458 81.7292 12.8568 81.3594 12.6484C80.9948 12.4349 80.5703 12.3281 80.0859 12.3281C79.5807 12.3281 79.1328 12.4453 78.7422 12.6797C78.3568 12.9089 78.0547 13.2187 77.8359 13.6094C77.6172 13.9948 77.5052 14.4245 77.5 14.8984V16.8594C77.5 17.4531 77.6094 17.9661 77.8281 18.3984C78.0521 18.8307 78.3672 19.1641 78.7734 19.3984C79.1797 19.6328 79.6615 19.75 80.2187 19.75C80.5885 19.75 80.9271 19.6979 81.2344 19.5938C81.5417 19.4896 81.8047 19.3333 82.0234 19.125C82.2422 18.9167 82.4089 18.6615 82.5234 18.3594L85.6016 18.5625C85.4453 19.3021 85.125 19.9479 84.6406 20.5C84.1615 21.0469 83.5417 21.474 82.7813 21.7813C82.026 22.0833 81.1536 22.2344 80.1641 22.2344ZM87.8438 26.5V10H91.125V12.0156H91.2734C91.4193 11.6927 91.6302 11.3646 91.9063 11.0312C92.1875 10.6927 92.5521 10.4115 93 10.1875C93.4531 9.95833 94.0156 9.84375 94.6875 9.84375C95.5625 9.84375 96.3698 10.0729 97.1094 10.5313C97.849 10.9844 98.4401 11.6693 98.8828 12.5859C99.3255 13.4974 99.5469 14.6406 99.5469 16.0156C99.5469 17.3542 99.3307 18.4844 98.8984 19.4062C98.4714 20.3229 97.888 21.0182 97.1484 21.4922C96.4141 21.9609 95.5911 22.1953 94.6797 22.1953C94.0339 22.1953 93.4844 22.0885 93.0313 21.875C92.5833 21.6615 92.2161 21.3932 91.9297 21.0703C91.6432 20.7422 91.4245 20.4115 91.2734 20.0781H91.1719V26.5H87.8438ZM91.1016 16C91.1016 16.7135 91.2005 17.3359 91.3984 17.8672C91.5964 18.3984 91.8828 18.8125 92.2578 19.1094C92.6328 19.401 93.0885 19.5469 93.625 19.5469C94.1667 19.5469 94.625 19.3984 95 19.1016C95.375 18.7995 95.6589 18.3828 95.8516 17.8516C96.0495 17.3151 96.1484 16.6979 96.1484 16C96.1484 15.3073 96.0521 14.6979 95.8594 14.1719C95.6667 13.6458 95.3828 13.2344 95.0078 12.9375C94.6328 12.6406 94.1719 12.4922 93.625 12.4922C93.0833 12.4922 92.625 12.6354 92.25 12.9219C91.8802 13.2083 91.5964 13.6146 91.3984 14.1406C91.2005 14.6667 91.1016 15.2865 91.1016 16ZM111.742 5.59375L112.758 7.76562C112.419 8.04687 112.044 8.25521 111.633 8.39062C111.221 8.52083 110.729 8.60677 110.156 8.64844C109.589 8.6901 108.896 8.71875 108.078 8.73437C107.151 8.74479 106.396 8.89323 105.813 9.17969C105.229 9.46615 104.786 9.91667 104.484 10.5313C104.182 11.1406 103.984 11.9375 103.891 12.9219H104.008C104.367 12.1875 104.872 11.6198 105.523 11.2187C106.18 10.8177 106.99 10.6172 107.953 10.6172C108.974 10.6172 109.867 10.8411 110.633 11.2891C111.404 11.737 112.003 12.3802 112.43 13.2187C112.857 14.0573 113.07 15.0625 113.07 16.2344C113.07 17.4531 112.831 18.513 112.352 19.4141C111.878 20.3099 111.203 21.0052 110.328 21.5C109.453 21.9896 108.411 22.2344 107.203 22.2344C105.99 22.2344 104.943 21.9792 104.063 21.4687C103.188 20.9583 102.51 20.2057 102.031 19.2109C101.557 18.2161 101.32 16.9922 101.32 15.5391V14.5547C101.32 11.6641 101.883 9.52083 103.008 8.125C104.133 6.72917 105.786 6.02083 107.969 6C108.563 5.98958 109.099 5.98698 109.578 5.99219C110.057 5.9974 110.477 5.97396 110.836 5.92187C111.201 5.86979 111.503 5.76042 111.742 5.59375ZM107.219 19.6562C107.729 19.6562 108.167 19.5234 108.531 19.2578C108.901 18.9922 109.185 18.612 109.383 18.1172C109.586 17.6224 109.688 17.0312 109.688 16.3437C109.688 15.6615 109.586 15.0833 109.383 14.6094C109.185 14.1302 108.901 13.7656 108.531 13.5156C108.161 13.2656 107.719 13.1406 107.203 13.1406C106.818 13.1406 106.471 13.2109 106.164 13.3516C105.857 13.4922 105.594 13.7005 105.375 13.9766C105.161 14.2474 104.995 14.5833 104.875 14.9844C104.76 15.3802 104.703 15.8333 104.703 16.3437C104.703 17.3698 104.924 18.1797 105.367 18.7734C105.815 19.362 106.432 19.6562 107.219 19.6562ZM118.701 22.2266C117.936 22.2266 117.253 22.0938 116.654 21.8281C116.055 21.5573 115.581 21.1589 115.232 20.6328C114.889 20.1016 114.717 19.4401 114.717 18.6484C114.717 17.9818 114.839 17.4219 115.084 16.9687C115.329 16.5156 115.662 16.151 116.084 15.875C116.506 15.599 116.985 15.3906 117.521 15.25C118.063 15.1094 118.631 15.0104 119.225 14.9531C119.923 14.8802 120.485 14.8125 120.912 14.75C121.339 14.6823 121.649 14.5833 121.842 14.4531C122.035 14.3229 122.131 14.1302 122.131 13.875V13.8281C122.131 13.3333 121.975 12.9505 121.662 12.6797C121.355 12.4089 120.917 12.2734 120.35 12.2734C119.751 12.2734 119.274 12.4062 118.92 12.6719C118.566 12.9323 118.331 13.2604 118.217 13.6562L115.139 13.4062C115.295 12.6771 115.602 12.0469 116.061 11.5156C116.519 10.9792 117.11 10.5677 117.834 10.2812C118.563 9.98958 119.407 9.84375 120.365 9.84375C121.032 9.84375 121.67 9.92187 122.279 10.0781C122.894 10.2344 123.438 10.4766 123.912 10.8047C124.391 11.1328 124.769 11.5547 125.045 12.0703C125.321 12.5807 125.459 13.1927 125.459 13.9062V22H122.303V20.3359H122.209C122.016 20.7109 121.758 21.0417 121.436 21.3281C121.113 21.6094 120.725 21.8307 120.271 21.9922C119.818 22.1484 119.295 22.2266 118.701 22.2266ZM119.654 19.9297C120.144 19.9297 120.576 19.8333 120.951 19.6406C121.326 19.4427 121.62 19.1771 121.834 18.8438C122.048 18.5104 122.154 18.1328 122.154 17.7109V16.4375C122.05 16.5052 121.907 16.5677 121.725 16.625C121.548 16.6771 121.347 16.7266 121.123 16.7734C120.899 16.8151 120.675 16.8542 120.451 16.8906C120.227 16.9219 120.024 16.9505 119.842 16.9766C119.451 17.0339 119.11 17.125 118.818 17.25C118.527 17.375 118.3 17.5443 118.139 17.7578C117.977 17.9661 117.896 18.2266 117.896 18.5391C117.896 18.9922 118.061 19.3385 118.389 19.5781C118.722 19.8125 119.144 19.9297 119.654 19.9297ZM133.463 22.2344C132.234 22.2344 131.176 21.974 130.291 21.4531C129.411 20.9271 128.734 20.1979 128.26 19.2656C127.791 18.3333 127.557 17.2604 127.557 16.0469C127.557 14.8177 127.794 13.7396 128.268 12.8125C128.747 11.8802 129.426 11.1536 130.307 10.6328C131.187 10.1068 132.234 9.84375 133.447 9.84375C134.494 9.84375 135.411 10.0339 136.197 10.4141C136.984 10.7943 137.606 11.3281 138.064 12.0156C138.523 12.7031 138.775 13.5104 138.822 14.4375H135.682C135.593 13.8385 135.359 13.3568 134.979 12.9922C134.604 12.6224 134.111 12.4375 133.502 12.4375C132.986 12.4375 132.536 12.5781 132.15 12.8594C131.77 13.1354 131.473 13.5391 131.26 14.0703C131.046 14.6016 130.939 15.2448 130.939 16C130.939 16.7656 131.044 17.4167 131.252 17.9531C131.465 18.4896 131.765 18.8984 132.15 19.1797C132.536 19.4609 132.986 19.6016 133.502 19.6016C133.882 19.6016 134.223 19.5234 134.525 19.3672C134.833 19.2109 135.085 18.9844 135.283 18.6875C135.486 18.3854 135.619 18.0234 135.682 17.6016H138.822C138.77 18.5182 138.52 19.3255 138.072 20.0234C137.63 20.7161 137.018 21.2578 136.236 21.6484C135.455 22.0391 134.531 22.2344 133.463 22.2344Z" fill="#1C202A"/>
<mask id="mask0_310_343" style="mask-type:alpha" maskUnits="userSpaceOnUse" x="0" y="0" width="26" height="26">
<circle cx="13" cy="13" r="13" fill="#C4C4C4"/>
</mask>
<g mask="url(#mask0_310_343)">
<rect x="-3" y="-16" width="45" height="50" fill="url(#paint0_linear_310_343)"/>
<g filter="url(#filter0_i_310_343)">
<circle cx="13" cy="13" r="13" fill="white" fill-opacity="0.06"/>
</g>
</g>
<defs>
<filter id="filter0_i_310_343" x="0" y="0" width="26" height="26" filterUnits="userSpaceOnUse" color-interpolation-filters="sRGB">
<feFlood flood-opacity="0" result="BackgroundImageFix"/>
<feBlend mode="normal" in="SourceGraphic" in2="BackgroundImageFix" result="shape"/>
<feColorMatrix in="SourceAlpha" type="matrix" values="0 0 0 0 0 0 0 0 0 0 0 0 0 0 0 0 0 0 127 0" result="hardAlpha"/>
<feOffset/>
<feGaussianBlur stdDeviation="2.5"/>
<feComposite in2="hardAlpha" operator="arithmetic" k2="-1" k3="1"/>
<feColorMatrix type="matrix" values="0 0 0 0 1 0 0 0 0 1 0 0 0 0 1 0 0 0 0.57 0"/>
<feBlend mode="normal" in2="shape" result="effect1_innerShadow_310_343"/>
</filter>
<linearGradient id="paint0_linear_310_343" x1="19.5" y1="-16" x2="19.5" y2="34" gradientUnits="userSpaceOnUse">
<stop stop-color="#FFCE00"/>
<stop offset="0.817708" stop-color="#03D5FF"/>
</linearGradient>
</defs>
</svg>
