<svg xmlns="http://www.w3.org/2000/svg" width="17" height="17" fill="none"><path fill="#000" d="M5.23.21H2.81A2.6 2.6 0 0 0 .21 2.8v2.47a2.59 2.59 0 0 0 2.6 2.57h2.42c1.43 0 2.6-1.15 2.6-2.57V2.79A2.59 2.59 0 0 0 5.23.2Zm1.46 5.05c0 .79-.66 1.43-1.46 1.43H2.81c-.8 0-1.46-.64-1.46-1.43V2.79a1.4 1.4 0 0 1 .63-1.17c.23-.17.52-.26.83-.26h2.42c.8 0 1.46.64 1.46 1.43v2.47ZM14.19.21h-2.42a2.6 2.6 0 0 0-2.6 2.58v2.47a2.59 2.59 0 0 0 2.6 2.57h2.42c1.43 0 2.6-1.15 2.6-2.57V2.79A2.59 2.59 0 0 0 14.19.2Zm1.45 5.05c0 .79-.65 1.43-1.45 1.43h-2.42c-.8 0-1.46-.64-1.46-1.43V2.79a1.4 1.4 0 0 1 .62-1.17c.24-.17.53-.26.84-.26h2.42c.8 0 1.45.64 1.45 1.43v2.47ZM5.23 9.17H2.81a2.6 2.6 0 0 0-2.6 2.57v2.47a2.59 2.59 0 0 0 2.6 2.58h2.42c1.44 0 2.6-1.16 2.6-2.58v-2.47a2.59 2.59 0 0 0-2.6-2.57ZM6.7 14.2c0 .8-.65 1.43-1.46 1.43H2.81c-.8 0-1.45-.64-1.45-1.43v-2.47a1.4 1.4 0 0 1 .62-1.17c.23-.16.52-.26.83-.26h2.42c.8 0 1.46.64 1.46 1.43v2.47ZM10.45 12a.66.66 0 0 1-.67-.65v-1.13a.64.64 0 0 1 .29-.54c.1-.07.24-.11.38-.11h1.1c.37 0 .67.29.67.65v1.13c0 .36-.3.66-.67.66h-1.1ZM10.45 16.06a.66.66 0 0 1-.67-.66v-1.13a.64.64 0 0 1 .29-.53c.1-.08.24-.12.38-.12h1.1c.37 0 .67.3.67.65v1.13c0 .36-.3.66-.67.66h-1.1ZM14.71 12a.66.66 0 0 1-.67-.65v-1.13a.64.64 0 0 1 .29-.54c.1-.07.24-.11.38-.11h1.1c.38 0 .68.29.68.65v1.13c0 .36-.3.66-.67.66H14.7ZM14.71 16.06a.66.66 0 0 1-.67-.66v-1.13a.64.64 0 0 1 .29-.53c.1-.08.24-.12.38-.12h1.1c.38 0 .68.3.68.65v1.13c0 .36-.3.66-.67.66H14.7Z"/></svg>