<svg xmlns="http://www.w3.org/2000/svg" width="32" height="49" fill="none"><rect width="32" height="32" fill="#000" fill-opacity=".74" rx="5"/><path fill="#fff" d="M8 14.18V20H6.77v-4.65h-.03l-1.33.83V15.1l1.44-.9H8Zm3.54 5.9c-.43 0-.8-.07-1.14-.22a1.93 1.93 0 0 1-.78-.6 1.53 1.53 0 0 1-.3-.9h1.25c0 .14.05.26.14.37.08.1.2.19.34.25.15.06.3.09.49.09s.35-.04.5-.1a.81.81 0 0 0 .33-.28.7.7 0 0 0 .13-.4c0-.16-.05-.3-.13-.42a.83.83 0 0 0-.37-.28c-.16-.07-.35-.1-.57-.1h-.54v-.9h.54c.18 0 .35-.04.49-.1a.8.8 0 0 0 .34-.27.7.7 0 0 0 .11-.4.7.7 0 0 0-.4-.65 1.13 1.13 0 0 0-.89 0 .8.8 0 0 0-.32.25.67.67 0 0 0-.14.39H9.45c0-.34.1-.63.28-.89.19-.26.44-.46.75-.6.32-.14.68-.22 1.07-.22.4 0 .76.08 1.06.22.3.15.53.34.7.6.17.24.25.51.25.82 0 .33-.1.6-.3.82-.2.21-.47.35-.8.41v.05c.43.05.76.2.98.44.22.24.34.54.33.9 0 .34-.09.63-.28.89-.2.26-.46.46-.8.6-.33.16-.72.23-1.15.23Zm3.84-.76a.66.66 0 0 1-.49-.2.66.66 0 0 1-.2-.48c0-.18.07-.34.2-.48.14-.13.3-.2.49-.2.18 0 .34.07.48.2.13.14.2.3.2.48 0 .13-.03.24-.1.35a.73.73 0 0 1-.24.24c-.1.06-.22.1-.34.1Zm0-2.85a.66.66 0 0 1-.49-.2.66.66 0 0 1-.2-.48c0-.19.07-.35.2-.48.14-.13.3-.2.49-.2.18 0 .34.07.48.2.13.13.2.3.2.48 0 .12-.03.24-.1.34a.7.7 0 0 1-.24.25c-.1.06-.22.09-.34.09Zm3.79 3.61c-.4 0-.76-.07-1.08-.22a1.87 1.87 0 0 1-.74-.61 1.57 1.57 0 0 1-.29-.9h1.2c0 .23.1.41.28.55.18.14.38.21.63.21a1 1 0 0 0 .5-.12c.16-.1.27-.21.36-.36.08-.16.13-.34.13-.54s-.05-.38-.14-.54a.92.92 0 0 0-.35-.36 1.05 1.05 0 0 0-.52-.14c-.17 0-.34.04-.5.1a.9.9 0 0 0-.37.3l-1.1-.2.28-3.07h3.56v1h-2.54l-.15 1.46h.03c.1-.14.26-.26.46-.35a1.79 1.79 0 0 1 2.28.78c.16.29.24.62.24.99a1.92 1.92 0 0 1-1.04 1.76c-.32.17-.7.26-1.13.26Zm5.2 0c-.44 0-.83-.07-1.17-.21-.34-.15-.6-.34-.8-.6-.2-.24-.29-.52-.29-.84 0-.24.06-.46.17-.66a1.5 1.5 0 0 1 1.1-.77v-.04a1.3 1.3 0 0 1-1.05-1.29c0-.3.09-.57.26-.8.18-.24.42-.43.73-.56.3-.14.66-.2 1.05-.2.4 0 .74.06 1.05.2.3.13.55.32.72.56.18.23.27.5.27.8a1.3 1.3 0 0 1-1.04 1.29V17c.23.04.44.12.63.26a1.48 1.48 0 0 1 .63 1.17c0 .32-.1.6-.3.85-.19.25-.46.44-.8.59a3 3 0 0 1-1.16.2Zm0-.9c.2 0 .36-.04.51-.1a.84.84 0 0 0 .34-.3.78.78 0 0 0 .13-.44.79.79 0 0 0-.13-.45.88.88 0 0 0-.35-.3 1.08 1.08 0 0 0-.5-.12c-.19 0-.36.04-.5.12a.88.88 0 0 0-.35.3.8.8 0 0 0-.13.45c0 .16.04.3.12.44.08.12.2.22.35.3.14.06.32.1.5.1Zm0-2.6c.16 0 .3-.04.43-.1a.75.75 0 0 0 .4-.68.73.73 0 0 0-.4-.67.92.92 0 0 0-.43-.1.93.93 0 0 0-.44.1.74.74 0 0 0-.3.27.74.74 0 0 0-.1.4c0 .15.03.28.1.4.08.12.18.21.3.28.13.06.28.1.44.1Z"/><path fill="#fff" fill-opacity=".14" d="M3 2.84c0-.46.38-.84.84-.84h23.58a.84.84 0 0 1 0 1.68H3.84A.84.84 0 0 1 3 2.84Z"/><path stroke="#000" d="M24 32v11.5m0 0c-2.5.5-2.5 1-4 1.5-.85.28 1.27-.95 4-1.5Zm0 0c-2 1.5-2.14 4.55-2 4 .5-2 .5-2 2-4Zm0 0c1.84 1.4 1.2 1.2 2 2 .5.5-.02-.5-2-2ZM9 32v8.5l-.5 3m0 0c-2.83.17-4.5.5-6 1-.5.17 1-.7 6-1Zm0 0C6 44.5 3.43 48 4 48c.5 0 .5-2 4.5-4.5Zm0 0c2 1.5 2 3 2 3.5s1-1-2-3.5Z"/></svg>