<svg width="46" height="89" viewBox="0 0 46 89" fill="none" xmlns="http://www.w3.org/2000/svg">
<ellipse cx="23" cy="77" rx="17" ry="12" fill="url(#paint0_radial_1306_1037)" fill-opacity="0.41"/>
<line x1="22.5" y1="73.5" x2="22.5" y2="45.5" stroke="url(#paint1_linear_1306_1037)" stroke-width="5" stroke-linecap="round"/>
<mask id="mask0_1306_1037" style="mask-type:alpha" maskUnits="userSpaceOnUse" x="0" y="0" width="46" height="46">
<circle cx="22.9765" cy="22.9765" r="22.9765" fill="#D9D9D9"/>
</mask>
<g mask="url(#mask0_1306_1037)">
<g filter="url(#filter0_d_1306_1037)">
<circle cx="22.9765" cy="22.9765" r="22.9765" fill="url(#paint2_linear_1306_1037)"/>
<circle cx="22.9765" cy="22.9765" r="22.9765" fill="url(#paint3_radial_1306_1037)" fill-opacity="0.2"/>
</g>
<circle cx="6" cy="12" r="31" fill="url(#paint4_radial_1306_1037)"/>
<path d="M16.8716 21.0625L18.8096 20.8984C18.9531 21.8418 19.2847 22.5527 19.8042 23.0312C20.3306 23.5029 20.9629 23.7388 21.7012 23.7388C22.5898 23.7388 23.3418 23.4038 23.957 22.7339C24.5723 22.064 24.8799 21.1753 24.8799 20.0679C24.8799 19.0151 24.5825 18.1846 23.9878 17.5762C23.3999 16.9678 22.6274 16.6636 21.6704 16.6636C21.0757 16.6636 20.5391 16.8003 20.0605 17.0737C19.582 17.3403 19.2061 17.689 18.9326 18.1196L17.1997 17.894L18.6558 10.1729H26.1309V11.9365H20.1323L19.3223 15.9766C20.2246 15.3477 21.1714 15.0332 22.1626 15.0332C23.4751 15.0332 24.5825 15.4878 25.4849 16.397C26.3872 17.3062 26.8384 18.4751 26.8384 19.9038C26.8384 21.2642 26.4419 22.4399 25.6489 23.4312C24.6851 24.6479 23.3691 25.2563 21.7012 25.2563C20.334 25.2563 19.2163 24.8735 18.3481 24.1079C17.4868 23.3423 16.9946 22.3271 16.8716 21.0625Z" fill="white"/>
<path d="M11.8887 30.2588H13.666L15.437 35.6543L17.4048 30.2588H19.0488V37H17.9062V31.5728L15.9131 37H14.8911L13.0059 31.3125V37H11.8887V30.2588ZM20.4044 30.2588H21.547V35.4004L24.7145 30.2588H25.9459V37H24.8034V31.8901L21.6359 37H20.4044V30.2588ZM27.2825 30.2588H28.4251V33.0645H31.5926V30.2588H32.7351V37H31.5926V34.0103H28.4251V37H27.2825V30.2588Z" fill="white"/>
</g>
<defs>
<filter id="filter0_d_1306_1037" x="-4" y="0" width="53.9531" height="53.9531" filterUnits="userSpaceOnUse" color-interpolation-filters="sRGB">
<feFlood flood-opacity="0" result="BackgroundImageFix"/>
<feColorMatrix in="SourceAlpha" type="matrix" values="0 0 0 0 0 0 0 0 0 0 0 0 0 0 0 0 0 0 127 0" result="hardAlpha"/>
<feOffset dy="4"/>
<feGaussianBlur stdDeviation="2"/>
<feComposite in2="hardAlpha" operator="out"/>
<feColorMatrix type="matrix" values="0 0 0 0 0 0 0 0 0 0 0 0 0 0 0 0 0 0 0.02 0"/>
<feBlend mode="normal" in2="BackgroundImageFix" result="effect1_dropShadow_1306_1037"/>
<feBlend mode="normal" in="SourceGraphic" in2="effect1_dropShadow_1306_1037" result="shape"/>
</filter>
<radialGradient id="paint0_radial_1306_1037" cx="0" cy="0" r="1" gradientUnits="userSpaceOnUse" gradientTransform="translate(23 77) rotate(90) scale(12 17)">
<stop stop-opacity="0.38"/>
<stop offset="0.244792" stop-opacity="0.33"/>
<stop offset="0.526042" stop-opacity="0.25"/>
<stop offset="0.791667" stop-opacity="0.09"/>
<stop offset="1" stop-opacity="0"/>
</radialGradient>
<linearGradient id="paint1_linear_1306_1037" x1="8" y1="59.5" x2="33.5" y2="59.5" gradientUnits="userSpaceOnUse">
<stop stop-color="white"/>
<stop offset="0.578399" stop-color="#1CA338"/>
<stop offset="1" stop-color="white"/>
</linearGradient>
<linearGradient id="paint2_linear_1306_1037" x1="8" y1="-2.5" x2="23" y2="46" gradientUnits="userSpaceOnUse">
<stop offset="0.239583" stop-color="#2BD800"/>
<stop offset="1" stop-color="#2DC658"/>
</linearGradient>
<radialGradient id="paint3_radial_1306_1037" cx="0" cy="0" r="1" gradientUnits="userSpaceOnUse" gradientTransform="translate(22.9765 22.9765) rotate(90) scale(22.9765)">
<stop offset="0.781226" stop-color="white" stop-opacity="0"/>
<stop offset="0.90723" stop-color="white"/>
<stop offset="1" stop-color="white"/>
<stop offset="1" stop-color="white"/>
</radialGradient>
<radialGradient id="paint4_radial_1306_1037" cx="0" cy="0" r="1" gradientUnits="userSpaceOnUse" gradientTransform="translate(6 12) rotate(90) scale(31)">
<stop offset="0.229167" stop-color="#FFCE00" stop-opacity="0.34"/>
<stop offset="1" stop-color="#D9D9D9" stop-opacity="0"/>
</radialGradient>
</defs>
</svg>
